<svg xmlns="http://www.w3.org/2000/svg" width="210" height="210" fill-rule="evenodd" stroke-linejoin="round" stroke-width="28.2" clip-path="url(#presentation_clip_path)" preserveAspectRatio="xMidYMid" version="1.2" viewBox="0 0 21000 21000"><g fill="#fff" class="SlideGroup"><g class="Slide" clip-path="url(#presentation_clip_path)"><g class="Page"><g class="Group"><path d="M4584 9509v321H2758V5734l77-48 7049-4271 242-149v2273h-320V1836L3077 5914v3595h1507zM16632 9830v-321h1507V5914l-6709-4119v1722h-321V1223l244 149 7029 4316 76 46v4096h-1826zM13044 9830v-321h1729v321h-1729zM14751 11112v321h-1707v-321h1707zM6486 9830v-321h1836v321H6486zM6486 11454v-320h1815v320H6486z"/><path d="M4584 11134v320H3099v3574l6707 4118V5895L6645 7816v5174l1762 1128-85 134-87 136-1836-1176-73-47V7636l77-48 3480-2114 243-148v14393l-243-149-7028-4315-76-47v-4074h1805z"/><path d="M9882 15482l85-136 84-135 579 359 551-338 84 136 83 136-635 391-85 52-84-53-662-412z"/><path d="M13161 14366l-85-136-85-136 1634-1020-12-5300-3183-1923v13254l6730-4078v-3573h-1528v-320h1848v4074l-78 47-7049 4272-244 147V5285l243 145 3503 2115 79 47v90l11 5480v90l-76 45-1708 1069z"/><path d="M8162 6593h319v10047l-242-144-3717-2223-77-46V6717l77-48 6023-3652 83-51 83 50 6025 3632 78 47v7528l-75 48-3568 2264-244 156-1-290-44-9700 162-2h159l42 9410 3248-2063V6876l-5863-3535-5864 3556v7147l3396 2030V6593z"/><path d="M2193 5368l8352-5128 85-52 83 52 8310 5106 77 46v10157l-77 48-8309 5126-84 51-85-51-8352-5148-77-47V5413l77-45zm244 9981l8193 5048 8149-5027V5572L10630 564 2437 5594v9755z"/></g></g></g></g></svg>